<svg width="43" height="63" viewBox="0 0 43 63" xmlns="http://www.w3.org/2000/svg" xmlns:xlink="http://www.w3.org/1999/xlink"><title>D5E295D5-3758-4AD2-94BF-1FE05C0DE81C</title><defs><path id="a" d="M.01.1v62.423h42.855V.1H.01z"/></defs><g fill="none" fill-rule="evenodd"><mask id="b" fill="#fff"><use xlink:href="#a"/></mask><path d="M42.865 24.84c0-1.393-.901-2.579-2.15-3.002V10.585a3.171 3.171 0 0 0 2.15-3.002 3.167 3.167 0 0 0-3.158-3.168H37.49V2.123h.068a1.01 1.01 0 0 0 1.008-1.011A1.01 1.01 0 0 0 37.558.1h-8.6a1.01 1.01 0 0 0-1.008 1.01 1.01 1.01 0 0 0 1.007 1.012h.068v2.292H3.158A3.167 3.167 0 0 0 0 7.583c0 1.394.901 2.58 2.15 3.002v11.253a3.172 3.172 0 0 0 0 6.004v11.254a3.171 3.171 0 0 0 0 6.003v11.254A3.172 3.172 0 0 0 0 59.354a3.167 3.167 0 0 0 3.158 3.169h36.55a3.167 3.167 0 0 0 3.157-3.169 3.172 3.172 0 0 0-2.15-3.001V45.099a3.171 3.171 0 0 0 0-6.004V27.843a3.172 3.172 0 0 0 2.15-3.002zm-38.7-3.168H38.7v-10.92H4.166v10.92zM31.042 4.415h4.434V2.123H31.04v2.292zM3.158 6.437h36.55a1.145 1.145 0 0 1 0 2.292H3.157a1.146 1.146 0 0 1 0-2.292zm0 17.257h36.55a1.145 1.145 0 0 1 0 2.292H3.157a1.146 1.146 0 0 1 0-2.292zM4.166 38.93H38.7v-10.92H4.166v10.92zm0 17.257H38.7v-10.92H4.166v10.92zM39.707 60.5H3.158a1.145 1.145 0 0 1 0-2.292h36.55a1.146 1.146 0 0 1 0 2.292zm0-17.257H3.158a1.146 1.146 0 0 1 0-2.292h36.55a1.146 1.146 0 0 1 0 2.292z" fill="#FFF" mask="url(#b)"/></g></svg>