<svg width="40" height="52" viewBox="0 0 40 52" xmlns="http://www.w3.org/2000/svg"><title>A16A844A-A33C-4B70-91C9-2DD2C87BED91</title><g fill="#FFF" fill-rule="evenodd"><path d="M25.404 50.996H11.399c-3.637 0-6.607-2.943-6.607-6.566V18.156a.76.76 0 0 1 .759-.754h25.581c.416 0 .884.34.884.754V44.43c0 3.623-2.968 6.566-6.612 6.566zM6.314 18.908V44.43c0 2.788 2.278 5.063 5.085 5.063h14.005c2.804 0 5.09-2.275 5.09-5.063V18.908H6.314z" stroke="#FFF"/><path d="M34.465 39.782h-3.213a.76.76 0 0 1-.758-.76.76.76 0 0 1 .758-.753h3.213a2.77 2.77 0 0 0 2.768-2.76v-7.09c0-1.52-1.246-2.753-2.768-2.753h-3.213a.76.76 0 0 1-.758-.76c0-.413.342-.75.758-.75h3.213c2.367 0 4.29 1.909 4.29 4.262v7.091c0 2.354-1.93 4.273-4.29 4.273z" stroke="#FFF"/><path d="M12.088 43.994a.751.751 0 0 1-.756-.752V24.848c0-.42.333-.76.756-.76.424 0 .757.34.757.76v18.394a.751.751 0 0 1-.757.752zM24.712 43.994a.757.757 0 0 1-.756-.752V24.848a.76.76 0 1 1 1.522 0v18.394a.76.76 0 0 1-.766.752zM18.404 43.994a.759.759 0 0 1-.764-.752V24.848a.762.762 0 0 1 1.522 0v18.394a.758.758 0 0 1-.758.752z"/><path d="M30.82 18.908H5.988C3.234 18.908 1 16.686 1 13.957c0-2.737 2.234-4.958 4.987-4.958h.363c.513-4.464 4.275-7.866 8.87-7.866a8.98 8.98 0 0 1 6.992 3.344 5.84 5.84 0 0 1 2.285-.473A6.03 6.03 0 0 1 30.442 9h.378c2.748 0 4.98 2.221 4.98 4.958 0 2.73-2.232 4.95-4.98 4.95zM5.988 10.512a3.454 3.454 0 0 0-3.466 3.445c0 1.896 1.55 3.438 3.466 3.438H30.82c1.908 0 3.468-1.542 3.468-3.438 0-1.904-1.56-3.445-3.467-3.445h-1.053a.765.765 0 0 1-.766-.724 4.5 4.5 0 0 0-4.505-4.272c-.735 0-1.46.192-2.16.576a.77.77 0 0 1-.994-.236 7.445 7.445 0 0 0-6.123-3.21c-4.023 0-7.274 3.128-7.407 7.135a.76.76 0 0 1-.756.73h-1.07z" stroke="#FFF"/></g></svg>