<svg width="51" height="51" viewBox="0 0 51 51" xmlns="http://www.w3.org/2000/svg"><title>9AA449B3-A111-4686-B0E8-B8355A76D47B</title><path d="M9.047 8.073C-.58 17.16-1.014 32.33 8.073 41.959c.16.168.323.335.487.501 9.361 9.361 24.539 9.361 33.9 0 9.361-9.361 9.361-24.539 0-33.9C33.288-.616 18.483-.834 9.047 8.073zm4.6 10.318l4.744-4.745 7.119 7.12 7.119-7.12 4.746 4.745-7.118 7.121 7.118 7.117-4.746 4.747-7.119-7.121-7.119 7.12-4.744-4.746 7.118-7.117-7.118-7.12z" stroke="#FFF" stroke-width="2" fill="none" fill-rule="evenodd"/></svg>