<svg width="46" height="64" viewBox="0 0 46 64" xmlns="http://www.w3.org/2000/svg"><title>6FB8D4DA-0036-4D8B-B99E-1E1402F054F9</title><defs><path id="a" d="M.01.145v3.167h15.849V.145H.009z"/></defs><g fill="none" fill-rule="evenodd"><path d="M24.057 15.94c.871 0 1.584-.712 1.584-1.583V1.663c0-.871-.713-1.584-1.584-1.584-.87 0-1.583.713-1.583 1.584v12.694c0 .871.712 1.584 1.583 1.584zM32.382 19.398c.41 0 .805-.158 1.122-.462l8.985-8.986a1.586 1.586 0 1 0-2.243-2.244l-8.985 8.987c-.62.62-.62 1.623 0 2.243.317.304.725.462 1.121.462zM14.61 18.936a1.589 1.589 0 0 0 2.243 0c.62-.62.62-1.623 0-2.243L7.87 7.706A1.585 1.585 0 1 0 5.626 9.95l8.984 8.986zM43.082 36.13a6.571 6.571 0 0 0-4.261-1.597h-9.064v-6.4c0-3.06-.91-5.29-2.718-6.623-2.85-2.086-6.716-.912-6.887-.859a1.584 1.584 0 0 0-1.108 1.505v7.72c0 2.348-1.122 4.341-3.351 5.938-1.69 1.214-3.418 1.768-3.642 1.834l-.159.04a3.239 3.239 0 0 0-2.44-1.096H3.436a3.266 3.266 0 0 0-3.26 3.26v19.74a3.266 3.266 0 0 0 3.26 3.26h6.043c.79 0 1.53-.29 2.084-.765A6.648 6.648 0 0 0 16.207 64h18.906c1.9 0 3.576-.462 4.855-1.32 1.636-1.108 2.652-2.863 2.943-5.107l2.44-15.175c.383-2.349-.488-4.75-2.269-6.268zM9.571 59.593a.09.09 0 0 1-.092.092H3.436a.09.09 0 0 1-.093-.092V39.852a.09.09 0 0 1 .093-.093h6.043a.09.09 0 0 1 .092.093v19.74zM42.225 41.91l-2.441 15.202c0 .013 0 .04-.013.066-.106.91-.45 3.668-4.658 3.668H16.207c-1.689 0-3.167-1.267-3.43-2.943-.013-.065-.027-.131-.04-.184v-16.97l.093-.027c.026 0 .04-.013.065-.013.093-.026 2.336-.66 4.565-2.256 3.101-2.204 4.75-5.173 4.75-8.577v-6.413c.87-.093 2.071-.053 2.955.593.95.7 1.425 2.072 1.425 4.064v7.984c0 .87.713 1.583 1.584 1.583H38.82c.791 0 1.57.304 2.203.832.95.818 1.398 2.111 1.2 3.391z" fill="#FFF"/></g></svg>