<svg width="54" height="54" viewBox="0 0 54 54" xmlns="http://www.w3.org/2000/svg"><title>4EA92203-ADC2-4989-AAA1-6D60086975F8</title><path d="M53.042 50.685L40.159 37.838a22.414 22.414 0 0 0 5.548-14.78C45.707 10.62 35.563.516 23.103.516 10.633.517.5 10.632.5 23.057c0 12.426 10.144 22.541 22.603 22.541 5.666 0 10.85-2.086 14.822-5.532l12.883 12.847c.306.304.717.469 1.117.469s.81-.153 1.117-.469a1.582 1.582 0 0 0 0-2.228zM3.662 23.057c0-10.69 8.721-19.375 19.43-19.375 10.72 0 19.43 8.697 19.43 19.375 0 10.679-8.71 19.388-19.43 19.388-10.709 0-19.43-8.697-19.43-19.388z" fill="#FFF" fill-rule="evenodd"/></svg>