<svg width="55" height="55" viewBox="0 0 55 55" xmlns="http://www.w3.org/2000/svg"><title>B518A3F1-B6A5-4AF9-977E-45E6BCAF8F2C</title><defs><path id="a" d="M0 66.99h67V0H0z"/></defs><g fill="none" fill-rule="evenodd"><path d="M51.23 21.219h-3.777a20.587 20.587 0 0 0-1.401-3.388l2.674-2.674a2.772 2.772 0 0 0 .818-1.971c0-.744-.29-1.445-.818-1.971l-4.94-4.941a2.77 2.77 0 0 0-1.972-.818 2.77 2.77 0 0 0-1.971.818l-2.674 2.673a20.664 20.664 0 0 0-3.388-1.4V3.771A2.795 2.795 0 0 0 30.99.979h-6.98a2.794 2.794 0 0 0-2.791 2.792v3.776c-1.179.37-2.312.838-3.388 1.401l-2.674-2.674a2.772 2.772 0 0 0-1.971-.818c-.744 0-1.445.29-1.971.818l-4.941 4.94a2.77 2.77 0 0 0-.818 1.972c0 .744.29 1.444.818 1.971l2.673 2.674a20.664 20.664 0 0 0-1.4 3.388H3.771A2.795 2.795 0 0 0 .979 24.01v6.98a2.794 2.794 0 0 0 2.792 2.791h3.776c.37 1.179.838 2.312 1.4 3.388l-2.673 2.674a2.772 2.772 0 0 0-.818 1.971c0 .744.29 1.445.818 1.971l4.94 4.941a2.77 2.77 0 0 0 1.972.818 2.77 2.77 0 0 0 1.971-.818l2.674-2.673c1.077.562 2.21 1.03 3.388 1.4v3.776a2.794 2.794 0 0 0 2.791 2.792h6.98a2.794 2.794 0 0 0 2.791-2.792v-3.776a20.587 20.587 0 0 0 3.388-1.401l2.674 2.674a2.772 2.772 0 0 0 1.971.818c.744 0 1.445-.29 1.971-.818l4.941-4.94a2.77 2.77 0 0 0 .818-1.972 2.77 2.77 0 0 0-.818-1.971l-2.673-2.674a20.664 20.664 0 0 0 1.4-3.388h3.776a2.795 2.795 0 0 0 2.792-2.791v-6.98a2.794 2.794 0 0 0-2.792-2.791zm0 9.77H46.4c-.637 0-1.192.431-1.352 1.047a17.784 17.784 0 0 1-1.928 4.661 1.397 1.397 0 0 0 .213 1.7l3.42 3.414-4.935 4.941-3.42-3.42a1.395 1.395 0 0 0-1.701-.212c-1.431.85-2.999 1.5-4.66 1.928A1.396 1.396 0 0 0 30.99 46.4v4.83h-6.98V46.4c0-.637-.43-1.193-1.047-1.352a17.813 17.813 0 0 1-4.66-1.928 1.397 1.397 0 0 0-1.7.213l-3.414 3.42-4.941-4.935 3.42-3.42c.45-.452.539-1.152.212-1.7-.85-1.432-1.5-3-1.928-4.66A1.396 1.396 0 0 0 8.6 30.99H3.77v-6.98H8.6c.637 0 1.192-.43 1.352-1.046a17.807 17.807 0 0 1 1.927-4.661 1.395 1.395 0 0 0-.212-1.7l-3.42-3.414 4.935-4.941 3.42 3.42c.452.451 1.152.539 1.7.212 1.432-.85 3-1.5 4.66-1.928A1.396 1.396 0 0 0 24.01 8.6V3.77h6.98V8.6c0 .637.43 1.192 1.046 1.352a17.807 17.807 0 0 1 4.661 1.927 1.396 1.396 0 0 0 1.7-.212l3.414-3.42 4.941 4.935-3.42 3.42a1.396 1.396 0 0 0-.212 1.7c.85 1.432 1.5 3 1.928 4.66A1.396 1.396 0 0 0 46.4 24.01h4.83v6.98z" fill="#FFF"/><path d="M40.284 34.825l-5.583-4.886-1.84 2.1 2.788 2.44H27.5a6.987 6.987 0 0 1-6.98-6.979h-2.79c0 5.388 4.382 9.77 9.77 9.77h8.15l-2.788 2.44 1.839 2.1 5.583-4.885a1.395 1.395 0 0 0 0-2.1zM22.138 22.96l-2.787-2.44H27.5a6.987 6.987 0 0 1 6.98 6.98h2.79c0-5.388-4.382-9.77-9.77-9.77h-8.15l2.788-2.44-1.839-2.1-5.583 4.885a1.395 1.395 0 0 0 0 2.1l5.583 4.886 1.84-2.101z" fill="#FFF"/></g></svg>