<svg width="65" height="41" viewBox="0 0 65 41" xmlns="http://www.w3.org/2000/svg" xmlns:xlink="http://www.w3.org/1999/xlink"><title>0C5ECE02-BEC7-4136-A273-397C6AC2F17D</title><defs><path id="a" d="M64.875 40.992H.008V.092h64.867z"/></defs><g fill="none" fill-rule="evenodd"><mask id="b" fill="#fff"><use xlink:href="#a"/></mask><path d="M28.112 28.713l-6.04-6.014 1.715-1.707 3.56 3.545c.424.42 1.107.42 1.53 0l11.129-11.08 1.715 1.707-13.609 13.549zm12.658-17.54a1.083 1.083 0 0 0-1.529 0l-11.129 11.08-3.56-3.544a1.083 1.083 0 0 0-1.529 0l-3.244 3.23a1.072 1.072 0 0 0 0 1.521l7.569 7.536a1.08 1.08 0 0 0 1.529 0l15.137-15.071a1.072 1.072 0 0 0 0-1.522l-3.244-3.23z" fill="#FFF" mask="url(#b)"/><path d="M50.964 25.929l3.928-4.694c.334-.4.334-.98 0-1.378l-3.928-4.693h10.52l-3.928 4.693c-.334.4-.334.98 0 1.378l3.928 4.694h-10.52zm-3.138.386c-.053.064-.1.134-.136.208-.076.15-.079.157-1.052 6.941-7.968 0-7.975.005-8.197.114a1.126 1.126 0 0 0-.208.136l-5.796 4.808-5.795-4.808a1.08 1.08 0 0 0-.692-.25h-7.712c-.973-6.784-.977-6.79-1.052-6.94a1.106 1.106 0 0 0-.137-.209l-4.828-5.769 4.828-5.77c.129-.154.212-.339.24-.537l.949-6.61h7.712c.253 0 .497-.09.692-.25l5.795-4.808c5.89 4.887 5.895 4.89 6.004 4.944.15.074.316.113.484.113h7.712l.948 6.612c.028.198.112.383.24.537l4.829 5.77-4.828 5.768zM3.39 25.93l3.928-4.694c.334-.4.334-.98 0-1.378L3.39 15.164h10.52l-3.928 4.693c-.334.4-.334.98 0 1.378l3.929 4.694H3.39zm56.404-5.383l4.83-5.77c.268-.32.326-.767.148-1.145a1.084 1.084 0 0 0-.98-.62H49.594L48.645 6.4a1.08 1.08 0 0 0-1.07-.925h-8.259A54813.79 54813.79 0 0 0 33.129.342a1.082 1.082 0 0 0-1.384 0L25.56 5.475H17.3a1.08 1.08 0 0 0-1.07.924l-.949 6.612h-14.2c-.419 0-.8.242-.979.62a1.07 1.07 0 0 0 .15 1.145l4.828 5.77-4.829 5.77c-.269.321-.326.768-.149 1.146.179.379.56.62.98.62h14.2l.949 6.612c.076.53.532.923 1.07.923h8.258l6.186 5.133a1.081 1.081 0 0 0 1.384 0l6.186-5.133c1.68 0 8.262.005 8.26 0a1.08 1.08 0 0 0 1.07-.923s.66-4.604.95-6.612h14.198c.42 0 .8-.242.98-.62a1.07 1.07 0 0 0-.15-1.146l-4.829-5.77z" fill="#FFF" mask="url(#b)"/></g></svg>