<svg width="49" height="51" viewBox="0 0 49 51" xmlns="http://www.w3.org/2000/svg"><title>7F19F2C9-128F-4F9E-97CB-C7CB2B20B151</title><path d="M41.729 7.401c-.042-.045-.126-.087-.17-.131C37.136 2.842 31.108.109 24.447.109c-6.657 0-12.686 2.778-17.11 7.247-.044.045-.085.045-.17.088-.043.044-.043.087-.084.131C2.698 12.087 0 18.382 0 25.282c0 13.89 10.96 25.176 24.446 25.176 13.49 0 24.45-11.286 24.45-25.176 0-6.9-2.699-13.15-7.083-17.707-.041-.044-.041-.131-.084-.174zm-17.283 39.54c-11 0-20.062-8.767-20.947-19.878h14.962c.76 2.647 3.12 4.6 5.944 4.6s5.226-1.953 5.944-4.6h14.963c-.801 11.111-9.863 19.879-20.866 19.879zm-2.739-21.66c0-1.56 1.223-2.82 2.74-2.82 1.518 0 2.741 1.26 2.741 2.82 0 1.565-1.223 2.824-2.742 2.824-1.516 0-2.739-1.259-2.739-2.823zm8.684-1.777a6.208 6.208 0 0 0-1.98-3.126l4.678-10.98c.379-.912 0-1.954-.885-2.344a1.695 1.695 0 0 0-2.277.91L25.25 18.946c-.253-.042-.55-.042-.803-.042-2.823 0-5.184 1.952-5.941 4.6H3.499c.378-4.644 2.149-8.898 4.972-12.24l3.246 3.342c.338.347.76.521 1.223.521.421 0 .884-.174 1.222-.521a1.819 1.819 0 0 0 0-2.518l-3.246-3.34c3.246-2.823 7.336-4.646 11.804-5.035v4.73c0 .998.757 1.78 1.726 1.78.97 0 1.73-.782 1.73-1.78v-4.73c4.467.39 8.557 2.212 11.8 5.035l-3.202 3.34a1.819 1.819 0 0 0 0 2.518c.338.347.76.521 1.223.521.422 0 .885-.174 1.222-.521l3.246-3.342a21.597 21.597 0 0 1 4.931 12.24H30.391z" fill="#FFF" fill-rule="evenodd"/></svg>