<svg width="72" height="77" viewBox="0 0 72 77" xmlns="http://www.w3.org/2000/svg" xmlns:xlink="http://www.w3.org/1999/xlink"><title>126DA29C-33FB-41BD-BB97-3107D0420BB3</title><defs><path id="a" d="M71.682 76.904H.096V0h71.586v76.904z"/></defs><g fill="none" fill-rule="evenodd"><g><mask id="b" fill="#fff"><use xlink:href="#a"/></mask><path d="M70.4 5.132h-8.963V1.285c0-.71-.568-1.285-1.274-1.285H51.2c-.706 0-1.282.576-1.282 1.285v3.847H21.763V1.285c0-.71-.576-1.285-1.281-1.285h-8.964c-.705 0-1.281.576-1.281 1.285v3.847H1.282C.574 5.132 0 5.709 0 6.417v69.298C0 76.425.574 77 1.282 77H70.4c.706 0 1.282-.576 1.282-1.285V6.417c0-.708-.576-1.285-1.282-1.285zm-17.918 5.131h6.4V2.57h-6.4v7.693zm-39.682 0h6.4V2.57h-6.4v7.693zM2.563 7.702h7.674v3.846c0 .71.576 1.285 1.281 1.285h8.964c.705 0 1.281-.576 1.281-1.285V7.702h28.155v3.846c0 .71.576 1.285 1.282 1.285h8.963c.706 0 1.274-.576 1.274-1.285V7.702h7.681V19.25H2.563V7.702zm0 66.728h66.555V21.82H2.563v52.61z" fill="#D41000" mask="url(#b)"/></g><path d="M45.563 30H11v37.223h48.645V30H45.563zM36.6 41.556h8.963V32.57H36.6v8.986zm0 11.549h8.963v-8.987H36.6v8.987zm-11.518 0h8.963v-8.987h-8.963v8.987zm0-11.549h8.963V32.57h-8.963v8.986zm-11.519 0h8.955V32.57h-8.955v8.986zm0 11.549h8.955v-8.987h-8.955v8.987zm0 11.548h8.955v-8.986h-8.955v8.986zm11.519 0h8.963v-8.986h-8.963v8.986zm11.518 0h8.963v-8.986H36.6v8.986zm11.518 0h8.964v-8.986h-8.964v8.986zm0-11.548h8.964v-8.987h-8.964v8.987zm0-11.549h8.964V32.57h-8.964v8.986z" fill="#D51000"/></g></svg>