<svg width="102" height="103" viewBox="0 0 102 103" xmlns="http://www.w3.org/2000/svg" xmlns:xlink="http://www.w3.org/1999/xlink"><title>DDC86DC7-D9FB-49E5-820C-A2D23E4B050E</title><defs><path id="a" d="M102 67.015H.016V.111H102z"/></defs><g fill="none" fill-rule="evenodd"><path d="M51 32.537c8.856 0 16.06-7.237 16.06-16.132C67.06 7.509 59.856.272 51 .272c-8.856 0-16.06 7.237-16.06 16.133 0 8.895 7.204 16.132 16.06 16.132zm0-28.995c7.06 0 12.805 5.77 12.805 12.863 0 7.092-5.744 12.862-12.805 12.862-7.06 0-12.805-5.77-12.805-12.862 0-7.093 5.744-12.863 12.805-12.863z" fill="#D10"/><g transform="translate(0 35.696)"><mask id="b" fill="#fff"><use xlink:href="#a"/></mask><path d="M51 3.38c12.981 0 23.638 10.178 24.478 23.007H37.862c-.9 0-1.628.732-1.628 1.635s.729 1.635 1.628 1.635H77.16c.899 0 1.628-.732 1.628-1.635C78.788 12.632 66.323.111 51 .111c-15.322 0-27.787 12.521-27.787 27.911 0 .903.728 1.635 1.628 1.635h6.51c.9 0 1.628-.732 1.628-1.635s-.729-1.635-1.628-1.635h-4.83C27.362 13.558 38.02 3.38 51 3.38zM30.472 46.913l-8.929-1.505-4.185-8.064a1.624 1.624 0 0 0-2.886 0l-4.185 8.064-8.928 1.505a1.639 1.639 0 0 0-.892 2.758l6.343 6.49-1.335 8.995c-.09.603.162 1.205.653 1.564.49.357 1.14.412 1.683.14l8.104-4.054 8.105 4.054a1.619 1.619 0 0 0 1.681-.14c.491-.359.743-.961.654-1.565l-1.334-8.994 6.342-6.49a1.64 1.64 0 0 0 .387-1.65 1.63 1.63 0 0 0-1.278-1.108zm-8.342 7.539a1.639 1.639 0 0 0-.448 1.385l.993 6.698-6.034-3.02a1.622 1.622 0 0 0-1.452 0l-6.033 3.02.992-6.698a1.639 1.639 0 0 0-.448-1.385l-4.723-4.833 6.649-1.12a1.632 1.632 0 0 0 1.174-.858l3.115-6.004 3.116 6.004c.236.455.67.772 1.174.857l6.648 1.121-4.723 4.833zM65.557 46.913l-8.93-1.505-4.184-8.064a1.624 1.624 0 0 0-2.886 0l-4.185 8.064-8.929 1.505a1.639 1.639 0 0 0-.892 2.758l6.343 6.49-1.334 8.995a1.64 1.64 0 0 0 .654 1.564c.49.357 1.14.412 1.682.14L51 62.806l8.104 4.054a1.623 1.623 0 0 0 1.683-.14c.49-.359.743-.961.653-1.565l-1.334-8.994 6.343-6.49a1.64 1.64 0 0 0 .387-1.65 1.632 1.632 0 0 0-1.28-1.108zm-8.342 7.539a1.639 1.639 0 0 0-.448 1.385l.993 6.698-6.034-3.02a1.627 1.627 0 0 0-1.45 0l-6.036 3.02.993-6.698a1.636 1.636 0 0 0-.448-1.385l-4.723-4.833 6.649-1.12a1.63 1.63 0 0 0 1.174-.858L51 41.637l3.115 6.004c.237.455.671.772 1.174.857l6.649 1.121-4.723 4.833zM101.92 48.021a1.631 1.631 0 0 0-1.279-1.108l-8.928-1.505-4.184-8.064a1.627 1.627 0 0 0-2.887 0l-4.184 8.064-8.93 1.505a1.639 1.639 0 0 0-.891 2.758l6.342 6.49-1.334 8.995a1.64 1.64 0 0 0 .654 1.564c.49.357 1.139.412 1.681.14l8.105-4.054 8.104 4.054a1.623 1.623 0 0 0 1.683-.14c.49-.359.743-.961.653-1.565l-1.335-8.994 6.344-6.49c.425-.434.574-1.07.387-1.65zm-9.62 6.43a1.636 1.636 0 0 0-.447 1.386l.993 6.698-6.035-3.02a1.623 1.623 0 0 0-1.451 0l-6.034 3.02.993-6.698a1.64 1.64 0 0 0-.448-1.385l-4.723-4.833 6.648-1.12a1.632 1.632 0 0 0 1.174-.858l3.116-6.004 3.115 6.004c.236.455.671.772 1.174.857l6.649 1.121-4.723 4.833z" fill="#D10" mask="url(#b)"/></g><path d="M51 23.817a7.365 7.365 0 0 0 5.568-2.555 1.64 1.64 0 0 0-.16-2.306 1.622 1.622 0 0 0-2.296.16A4.117 4.117 0 0 1 51 20.548a4.12 4.12 0 0 1-3.112-1.43 1.622 1.622 0 0 0-2.297-.161 1.64 1.64 0 0 0-.16 2.306A7.366 7.366 0 0 0 51 23.817z" fill="#D10"/></g></svg>