<svg width="77" height="77" viewBox="0 0 77 77" xmlns="http://www.w3.org/2000/svg"><title>2946219E-85DF-4CD2-B89F-B43123D687B0</title><path d="M38.398 0C17.191 0 0 17.191 0 38.398c0 21.211 17.191 38.403 38.398 38.403 21.211 0 38.403-17.192 38.403-38.403C76.801 17.191 59.609 0 38.398 0zM8.777 28.102l19.485 8.722 6.101 2.676 4.528 2.055 3.703 1.578c.683.594 1.027 1.371 1.027 2.332 0 1.371-.469 2.355-1.406 2.945-.938.598-2.07.895-3.395.895-3.199 0-6.058-1.168-8.57-3.496l-5.281 5.347c3.519 3.016 7.406 4.551 11.656 4.594v5.898h4.457V55.75c2.652-.227 4.949-1.109 6.895-2.641 1.937-1.531 3.164-3.507 3.664-5.933l14.234 6.344c-5.336 9.679-15.637 16.242-27.477 16.242-17.32 0-31.359-14.043-31.359-31.364 0-3.605.617-7.07 1.738-10.296zm40.469 9.75l-6.176-2.743-3.359-1.507-4.867-2.196c-.231-.32-.344-.64-.344-.961 0-1.093.469-1.875 1.406-2.328.938-.461 2-.687 3.188-.687 2.242 0 4.433.754 6.582 2.261l5.008-5.144c-2.879-2.192-6.082-3.379-9.602-3.563v-5.898h-4.457v5.898c-2.379.137-4.457.813-6.238 2.02-1.785 1.215-2.996 2.824-3.637 4.836l-14.621-6.559c5.598-8.57 15.269-14.242 26.269-14.242 17.321 0 31.36 14.043 31.36 31.359 0 2.813-.375 5.536-1.067 8.125l-19.445-8.671z" fill="#D10" fill-rule="evenodd"/></svg>