<svg width="30" height="36" viewBox="0 0 30 36" xmlns="http://www.w3.org/2000/svg"><title>EE8DD2C8-837C-4DDE-A770-7EF5E694B6CD</title><g fill="none" fill-rule="evenodd"><path d="M14.497 18.11c4.744 0 8.603-3.838 8.603-8.555S19.24 1 14.497 1C9.752 1 5.893 4.838 5.893 9.555s3.86 8.555 8.604 8.555z" stroke="#FFF" stroke-width="2" stroke-linecap="round" stroke-linejoin="round"/><path d="M14.886 21.825c6.954 0 12.663 5.397 13.113 12.2H7.848a.87.87 0 0 0-.872.868c0 .478.39.867.872.867H28.9a.87.87 0 0 0 .872-.867c0-8.162-6.678-14.802-14.886-14.802C6.678 20.09 0 26.73 0 34.893c0 .478.39.867.872.867H4.36a.87.87 0 0 0 .872-.867.87.87 0 0 0-.872-.867H1.772c.45-6.804 6.16-12.201 13.114-12.201zM14.447 13.336c1.144 0 2.23-.494 2.983-1.354a.863.863 0 0 0-.085-1.224.875.875 0 0 0-1.23.086 2.215 2.215 0 0 1-3.335 0 .875.875 0 0 0-1.23-.086.863.863 0 0 0-.086 1.224 3.963 3.963 0 0 0 2.983 1.354z" fill="#FFF"/></g></svg>