<svg width="35" height="23" viewBox="0 0 35 23" xmlns="http://www.w3.org/2000/svg"><title>6A61BC86-D90D-4EB9-AF34-69140088B2EF</title><g fill="#FFF" fill-rule="evenodd"><path d="M30.727 0H4.28C1.919 0 0 1.657 0 3.696v15.608C0 21.343 1.919 23 4.28 23h26.44c2.36 0 4.28-1.657 4.28-3.696V3.702C35.007 1.663 33.088 0 30.727 0zm2.325 19.304c0 1.107-1.043 2.008-2.325 2.008H4.28c-1.282 0-2.325-.9-2.325-2.008V3.702c0-1.107 1.043-2.007 2.325-2.007h26.44c1.282 0 2.324.9 2.324 2.007v15.602h.008z"/><path d="M22.052 11.473l8.56-6.628c.398-.313.434-.845.072-1.195-.362-.344-.977-.375-1.383-.062l-11.804 9.149-2.303-1.777c-.007-.006-.014-.012-.014-.018a1.45 1.45 0 0 0-.16-.119L5.65 3.582c-.406-.313-1.022-.282-1.384.068-.362.35-.326.882.08 1.195l8.661 6.685-8.625 6.972c-.391.32-.413.85-.044 1.195.196.175.457.269.717.269.24 0 .478-.076.667-.226l8.755-7.072 2.375 1.832c.189.144.42.212.652.212.232 0 .471-.074.652-.218l2.44-1.889 8.705 7.142c.188.156.435.231.674.231.26 0 .514-.088.71-.263a.768.768 0 0 0-.037-1.194l-8.596-7.048z"/></g></svg>