<svg width="40" height="35" viewBox="0 0 40 35" xmlns="http://www.w3.org/2000/svg"><title>9EBAB692-E962-4F64-8BEF-4FDA82BCBFCF</title><g stroke="#FFF" stroke-width="2" fill="none" fill-rule="evenodd"><path d="M19.835 9.612L6.4 20.584a.263.263 0 0 1-.012.07.354.354 0 0 0-.01.068v11.11c0 .4.146.747.443 1.04.296.293.646.44 1.05.44h8.974v-8.888h5.982v8.889H31.8c.405 0 .755-.148 1.05-.44.298-.293.446-.641.446-1.042V20.722a.32.32 0 0 0-.024-.138L19.835 9.612z"/><path d="M38.41 15.599l-5.116-4.213V1.943a.717.717 0 0 0-.21-.533.733.733 0 0 0-.538-.207H28.06a.733.733 0 0 0-.537.207.719.719 0 0 0-.21.533v4.514l-5.701-4.722c-.499-.4-1.091-.602-1.776-.602-.686 0-1.277.201-1.775.602L1.259 15.6a.668.668 0 0 0-.256.496.75.75 0 0 0 .164.545l1.448 1.712a.798.798 0 0 0 .49.255.875.875 0 0 0 .561-.162L19.835 5.09l16.17 13.354a.72.72 0 0 0 .49.162h.071a.801.801 0 0 0 .49-.255l1.45-1.713a.744.744 0 0 0 .162-.544.67.67 0 0 0-.258-.496z"/></g></svg>