<svg width="33" height="33" viewBox="0 0 33 33" xmlns="http://www.w3.org/2000/svg" xmlns:xlink="http://www.w3.org/1999/xlink"><title>12FF32E4-37CD-4CD9-972F-7346EE2B0879</title><defs><path id="a" d="M0 .083V33h32.956V.083H0z"/></defs><g fill="none" fill-rule="evenodd"><mask id="b" fill="#fff"><use xlink:href="#a"/></mask><path d="M26.06 20.474c-.676-.702-1.491-1.077-2.355-1.077-.857 0-1.679.368-2.382 1.07l-2.201 2.188c-.182-.097-.363-.187-.537-.277-.25-.125-.487-.244-.69-.369-2.061-1.306-3.935-3.008-5.732-5.21-.87-1.098-1.456-2.022-1.88-2.96.57-.52 1.1-1.063 1.615-1.584.195-.194.39-.396.585-.59 1.463-1.46 1.463-3.349 0-4.808L10.582 4.96c-.216-.215-.44-.437-.648-.66-.418-.43-.857-.875-1.31-1.292-.675-.667-1.483-1.021-2.333-1.021-.85 0-1.672.354-2.368 1.021l-.014.014L1.54 5.405A5.077 5.077 0 0 0 .03 8.635c-.167 2.03.432 3.919.891 5.155 1.129 3.037 2.815 5.85 5.33 8.865 3.05 3.634 6.72 6.503 10.914 8.525 1.602.757 3.74 1.653 6.13 1.806.147.007.3.014.439.014 1.61 0 2.96-.576 4.02-1.723.006-.014.02-.02.027-.035.362-.437.78-.834 1.22-1.257.298-.285.605-.584.905-.896.69-.716 1.051-1.55 1.051-2.404 0-.861-.369-1.689-1.072-2.383l-3.825-3.828zm2.493 7.315c-.007 0-.007.007 0 0-.271.292-.55.556-.85.848-.452.43-.912.882-1.344 1.39-.704.75-1.532 1.104-2.62 1.104-.104 0-.215 0-.32-.007-2.068-.132-3.99-.938-5.433-1.625-3.942-1.904-7.404-4.607-10.281-8.032-2.375-2.855-3.964-5.495-5.015-8.33-.648-1.73-.885-3.077-.78-4.348.07-.814.382-1.487.96-2.064l2.376-2.37c.341-.319.703-.492 1.059-.492.439 0 .794.264 1.017.486l.02.02c.426.397.83.807 1.255 1.244.216.223.438.445.661.674l1.902 1.897c.738.737.738 1.417 0 2.154-.202.201-.397.403-.6.597a36.392 36.392 0 0 1-1.747 1.695c-.014.014-.028.021-.035.035-.6.598-.488 1.181-.363 1.577l.021.063c.495 1.194 1.191 2.32 2.25 3.661l.007.007c1.923 2.362 3.95 4.203 6.186 5.613.285.181.578.327.856.466.251.125.488.243.69.368.028.014.056.035.084.049.236.118.46.173.69.173.577 0 .94-.36 1.058-.479l2.382-2.376c.237-.236.613-.521 1.052-.521.432 0 .787.27 1.003.507l3.852 3.842c.718.708.718 1.438.007 2.174zM17.812 7.913a8.843 8.843 0 0 1 4.806 2.487 8.848 8.848 0 0 1 2.494 4.794.934.934 0 0 0 .927.778c.055 0 .104-.007.16-.014a.94.94 0 0 0 .773-1.084 10.707 10.707 0 0 0-3.016-5.8 10.753 10.753 0 0 0-5.817-3.01.946.946 0 0 0-1.086.765c-.09.507.244 1 .76 1.084zM32.941 14.603c-.62-3.626-2.333-6.926-4.966-9.552A17.692 17.692 0 0 0 18.397.097a.937.937 0 1 0-.306 1.848c3.246.55 6.206 2.085 8.56 4.426a15.726 15.726 0 0 1 4.438 8.538.934.934 0 0 0 .926.778c.056 0 .105-.007.16-.014a.92.92 0 0 0 .766-1.07z" fill="#FFF" mask="url(#b)"/></g></svg>