<svg width="78" height="63" viewBox="0 0 78 63" xmlns="http://www.w3.org/2000/svg"><title>67084B52-2406-4B63-B014-A43D90ABD2FF</title><g stroke="#FFF" stroke-width="4" fill="none" fill-rule="evenodd"><path d="M17.76 5a31.876 31.876 0 0 0-5.32 2.68h-1.603C5.037 7.68 2 19.705 2 31.587c0 11.883 3.035 23.907 8.837 23.907h1.604a31.865 31.865 0 0 0 5.32 2.68c-2.968-6.139-4.496-16.399-4.496-26.587C13.265 21.4 14.793 11.14 17.76 5zM67.106 7.352c-.044 0-.091.014-.133.015A32.1 32.1 0 0 0 59.77 4C56.63 6.088 53 16.067 53 31.257c0 15.191 3.631 25.17 6.77 27.258a31.87 31.87 0 0 0 7.203-3.368c.042.002.09.016.133.016 5.799 0 8.834-12.022 8.834-23.906 0-11.882-3.035-23.905-8.834-23.905zM51.364 3.047C47.027 2.13 42.602 2 37.929 2h-4.72c-2.175 0-4.297.029-6.38.15C24.322 7.069 22 17.374 22 31.222c0 13.996 2.266 24.192 4.763 29.07 2.106.122 4.25.154 6.448.154h4.722c4.67 0 9.095-.13 13.432-1.047-4.177-5.087-6.393-16.897-6.393-28.174.001-11.278 2.217-23.09 6.392-28.178z"/></g></svg>