<svg width="59" height="85" viewBox="0 0 59 85" xmlns="http://www.w3.org/2000/svg" xmlns:xlink="http://www.w3.org/1999/xlink"><title>A3D2596B-817B-4882-B111-F5E96869C65D</title><defs><path id="a" d="M33.848.42H.44v97.565h66.817V.42z"/></defs><g transform="translate(-4 -8)" fill="none" fill-rule="evenodd"><mask id="b" fill="#fff"><use xlink:href="#a"/></mask><path d="M43.301 71.176c-1.433 0-2.396-.5-3.854-.974l-5.786-2.454-5.762 2.454c-.964.475-2.421.974-3.86.974-.963 0-1.457 0-2.42-.5L19.215 89.68l14.445-9.754 14.463 9.754-2.89-19.002c-.47.5-1.433.5-1.933.5z" stroke="#FFF" stroke-width="3" mask="url(#b)"/><path d="M57.276 38.965c-.47-.974-.47-2.43 0-3.404l2.89-5.85c.964-1.949 0-4.378-2.42-5.352l-6.256-2.423c-.963-.5-1.927-1.474-2.403-2.448l-2.42-6.332c-.47-1.948-1.903-2.922-3.366-2.922-.47 0-1.433 0-1.927.475l-6.256 2.928h-1.457c-.47 0-.94 0-1.433-.48l-6.256-2.448c-.494-.475-1.463-.475-1.933-.475-1.457 0-2.89.974-3.854 2.423l-2.402 6.831c0 .974-.964 1.948-1.927 2.448l-6.75 2.423c-1.933.475-2.896 2.928-1.933 5.351l2.897 6.326c.47.974.47 2.454 0 3.428l-2.897 5.85c-.963 1.925 0 4.372 2.403 5.353l6.28 2.423c.963.499 1.927 1.473 2.396 2.447l2.427 6.326c.47 1.954 1.903 2.929 3.36 2.929.47 0 .963 0 1.439-.5l6.28-2.928c.47 0 .964-.475 1.433-.475.47 0 .964 0 1.433.475l6.28 2.928c.47.5.964.5 1.434.5 1.463 0 2.896-.975 3.86-2.448l2.396-6.326c.493-.98 1.463-1.954 2.426-2.429l6.256-2.448c1.927-.974 3.36-3.403 2.397-5.351l-2.397-6.825zM34 54.233c-10.585 0-16.217-6.02-16.217-16.723 0-10.722 4.742-16.708 15.328-16.708 10.61 0 16.595 5.986 16.595 16.708 0 10.703-5.096 16.723-15.706 16.723z" stroke="#FFF" stroke-width="4" mask="url(#b)"/></g></svg>