<svg width="84" height="81" viewBox="0 0 84 81" xmlns="http://www.w3.org/2000/svg"><title>BA78AD47-0F81-46C3-8BF6-A945A570506E</title><g stroke="#FFF" stroke-width="2" fill="#FFF" fill-rule="evenodd"><path d="M79.294 40.963L41.283 76.321c.082-.314.216-.613.228-.953l1.094-31.322c.012-.355-.1-.676-.17-1.01L80.458 7.676l-1.163 33.288zM38.31 39.452L7.852 38.388 45.476 3.386c.015.001.019.015.028.016l35.05 1.224-39.08 36.347c-.78-.889-1.894-1.477-3.164-1.521zm.928 34.014c-.075 2.16-1.91 3.867-4.075 3.791l-27.756-.97c-2.161-.075-3.872-1.904-3.797-4.065l.967-27.687c.076-2.155 1.91-3.861 4.07-3.786l27.757.97c2.166.075 3.876 1.905 3.8 4.06l-.966 27.687zM83.002 3.552a1.135 1.135 0 0 0-1.094-1.17h-.028l-.076-.003-36.22-1.265c-.005 0-.01.009-.02.008a.885.885 0 0 0-.676.232l-.035.032a.83.83 0 0 0-.112.11L4.047 39.344c-1 .779-1.695 1.933-1.743 3.295L1.211 73.96c-.086 2.439 1.844 4.508 4.294 4.594l31.4 1.096c.949.034 3.948.294 4.414-.139l40.002-37.21c.236-.223.355-.522.356-.825L83.001 3.58v-.028z"/><path d="M34.25 69.306a2.807 2.807 0 0 1-2.898 2.696l-19.771-.69c-.654-.023-1.219-.303-1.684-.693l24.466-22.754c.358.49.598 1.072.576 1.72l-.689 19.721zM8.878 68.42L9.566 48.7a2.807 2.807 0 0 1 2.899-2.696l19.77.69c.176.006.33.083.5.122L8.96 68.925c-.028-.172-.089-.325-.082-.505zm23.487-21.888l-20.022-.699a2.847 2.847 0 0 0-2.938 2.733l-.697 19.976a2.845 2.845 0 0 0 2.74 2.93l20.021.7a2.848 2.848 0 0 0 2.942-2.733l.697-19.976c.055-1.553-1.182-2.876-2.743-2.93z"/></g></svg>