<svg width="108" height="80" viewBox="0 0 108 80" xmlns="http://www.w3.org/2000/svg"><title>93AC2FE4-F470-405D-9EC0-903167C5ABE8</title><g fill="none" fill-rule="evenodd"><path d="M28.07 48c-3.134 0-6.278.17-9.398-.034A17.65 17.65 0 0 1 2.914 35.447C.82 28.517 2.337 22.34 7.317 17.14c3.042-3.175 6.864-4.94 11.285-5.217 7.326-.46 12.967 2.485 16.91 8.664 1.75 2.742 2.574 5.812 2.591 9.067.03 5.842-.002 11.684.023 17.526.003.681-.17.897-.868.888-3.062-.037-6.125-.016-9.188-.016V48M53.893 41.53c2.99 0 5.985-.098 8.97.023 4.221.172 7.92 1.78 11.05 4.619 2.699 2.45 4.557 5.453 5.386 9.03 1.426 6.165.1 11.682-4.036 16.473-2.445 2.832-5.54 4.684-9.148 5.549-7.543 1.81-15.44-1.21-19.695-8.152-1.803-2.943-2.682-6.153-2.62-9.627.044-2.455.088-4.914-.011-7.365-.132-3.265-.007-6.528-.09-9.79-.017-.641.172-.796.795-.79 3.133.033 6.266.015 9.399.015v.015" stroke="#FFF" stroke-width="4"/><path d="M58.378 9.222c0 2.504-.014 5.007.012 7.51.005.552-.13.74-.712.722-1.382-.042-1.384-.01-1.384-1.392.001-3.552.004-7.105-.006-10.657 0-.237.145-.618-.163-.682-.32-.065-.322.351-.403.565a1799.353 1799.353 0 0 0-4.29 11.477c-.165.45-.34.785-.89.673-.535-.108-1.176.308-1.506-.613-1.362-3.8-2.812-7.568-4.23-11.348-.042-.111-.068-.233-.13-.332-.091-.15-.035-.457-.286-.428-.312.036-.183.337-.184.52-.009 3.17-.006 6.341-.006 9.512 0 .715-.013 1.43.005 2.146.01.373-.065.545-.503.556-1.63.042-1.629.06-1.629-1.576 0-4.72.01-9.441-.013-14.162-.003-.565.14-.797.713-.71.208.032.426.006.64.006 1.733 0 1.72.004 2.312 1.61 1.382 3.743 2.774 7.482 4.176 11.218.065.175.041.5.314.489.258-.01.24-.316.312-.505 1.545-4.087 3.093-8.173 4.614-12.269.152-.407.331-.573.76-.552.615.03 1.236.044 1.85-.002.516-.04.64.154.637.643-.02 2.527-.01 5.054-.01 7.581M56.298 23.452c-.628.828-.894 1.81-1.251 2.744-1.24 3.239-2.465 6.484-3.622 9.753-.306.865-.908.54-1.437.611-.481.065-.748-.077-.94-.6-1.458-3.992-2.961-7.966-4.454-11.945-.073-.195-.182-.376-.363-.744-.018.349-.035.517-.035.685 0 3.981-.01 7.963.014 11.944.004.541-.143.684-.675.674-1.453-.027-1.453-.002-1.453-1.454 0-4.744.012-9.489-.015-14.233-.004-.64.17-.847.798-.786.564.055 1.14.033 1.707.005.402-.02.592.147.728.515 1.492 4.03 2.997 8.053 4.5 12.079.041.112.064.237.132.33.106.143.016.44.268.443.24.003.232-.257.296-.427.663-1.755 1.33-3.509 1.987-5.265.857-2.291 1.721-4.58 2.55-6.88.217-.605.525-.887 1.194-.802.513.067 1.045.043 1.564.003.485-.037.6.158.596.615-.019 2.503-.009 5.006-.009 7.51 0 2.55-.011 5.101.009 7.652.004.494-.072.714-.65.698-1.438-.039-1.44-.005-1.44-1.469V23.452M84.35 2.862c-1.001 0-1.833.016-2.663-.007-.418-.011-.602.117-.597.564.016 1.525.016 3.05 0 4.576-.005.435.156.58.587.574 1.375-.02 2.752.009 4.129-.016.662-.012 1.324-.093 1.95-.35 1.094-.449 1.684-1.471 1.586-2.756-.106-1.391-.777-2.198-2.04-2.474-1.036-.226-2.083-.045-2.952-.111m4.611 6.634c2.18.698 2.12 2.553 2.28 4.277.106 1.135.073 2.29.697 3.316.14.23.03.354-.234.352-.594-.004-1.187-.004-1.78-.005-.29 0-.395-.184-.487-.43-.207-.553-.191-1.125-.197-1.694a12.106 12.106 0 0 0-.422-3.104c-.307-1.113-.926-1.683-2.064-1.728-1.73-.068-3.464-.038-5.196-.07-.48-.01-.458.284-.457.609.003 1.884-.029 3.768.018 5.65.016.656-.197.8-.808.784-1.45-.038-1.45-.007-1.45-1.473 0-4.722.013-9.444-.015-14.165-.004-.662.179-.834.832-.823 2.398.041 4.796 0 7.194.023 1.235.011 2.411.29 3.351 1.16 2.257 2.086 1.675 5.67-1.262 7.321" fill="#FFF"/><path d="M94.03 9.245c-.063.954.117 1.96.469 2.929.727 2 2.058 3.374 4.213 3.687 2.218.321 4.164-.327 5.351-2.31 1.608-2.683 1.636-5.524.227-8.312-.928-1.836-2.536-2.728-4.568-2.755-2.02-.027-3.627.8-4.668 2.586-.733 1.259-1.07 2.63-1.024 4.175m13.396-.015c.006 2.608-.736 4.9-2.678 6.743-2.974 2.824-9.901 2.812-12.165-2.72-1.033-2.527-1.114-5.097-.163-7.66 1.309-3.529 4.369-5.318 8.129-4.949 4.342.426 6.747 4.064 6.876 7.943.007.214 0 .429 0 .643M65.606 8.857c.047 2.092.336 3.795 1.472 5.22 1.366 1.714 3.224 2.144 5.25 1.704 2.043-.444 3.078-1.934 3.403-3.934.083-.51.257-.656.764-.651 1.746.017 1.773.037 1.242 1.78-1.095 3.59-3.892 5.003-7.305 4.825-4.296-.223-6.466-3.25-6.913-6.855-.305-2.452-.074-4.818 1.254-6.953C66.488 1.233 69.1.354 72.185.685c2.67.286 4.613 1.584 5.492 4.249.325.988.304 1.038-.717 1.037-.142 0-.288-.018-.427.003-.608.093-.869-.123-1.09-.758-.734-2.12-3.205-3.197-5.668-2.581-2.242.56-3.374 2.158-3.909 4.277-.185.736-.323 1.495-.26 1.945M87.208 28.366c.019-1.967.397-3.849 1.53-5.485 1.955-2.822 4.748-3.556 7.955-2.967 2.554.47 4.251 1.957 4.91 4.551.13.508.004.59-.48.616-.986.053-1.634-.048-2.126-1.197-.921-2.155-4.038-2.929-6.376-1.793-1.688.82-2.581 2.257-2.945 4.05-.437 2.155-.355 4.273.692 6.257a4.992 4.992 0 0 0 5.184 2.629c2.203-.327 3.543-1.611 3.98-3.95.116-.616.335-.741.906-.726 1.6.04 1.567.005 1.16 1.545-.99 3.75-4.045 5.408-7.852 4.977-3.446-.391-5.687-2.632-6.306-6.092a13.648 13.648 0 0 1-.232-2.415M66.183 22.177c-.91 2.497-1.748 4.805-2.59 7.112-.146.397.074.43.382.43 1.421-.008 2.843-.03 4.263.008.605.018.596-.214.434-.66-.47-1.29-.92-2.589-1.385-3.881-.34-.946-.692-1.888-1.104-3.009m6.4 14.384c-.238 0-.476-.014-.712.003-.36.026-.543-.103-.667-.472-.43-1.282-.93-2.54-1.355-3.824-.178-.537-.44-.725-1.019-.711-1.778.045-3.56.049-5.338-.002-.598-.017-.842.224-1.02.728-.441 1.254-.933 2.49-1.356 3.75-.143.426-.36.534-.774.536-1.74.01-1.735.024-1.103-1.605 1.844-4.758 3.687-9.515 5.521-14.277.154-.4.346-.588.817-.589 1.874-.002 1.862-.017 2.538 1.725 1.793 4.624 3.6 9.243 5.396 13.866.338.868.328.872-.573.871h-.355M77.657 29.305c0 2.216-.012 4.433.01 6.649.005.459-.103.617-.587.619-1.67.004-1.67.023-1.67-1.668-.001-4.027-.014-8.055.012-12.083.005-.608-.117-.836-.773-.809-1.326.055-2.657-.006-3.985.028-.525.014-.703-.122-.683-.674.052-1.465-.169-1.264 1.237-1.267 3.702-.004 7.404.011 11.106-.015.592-.004.784.154.762.76-.044 1.184-.01 1.185-1.16 1.184-1.186 0-2.374.025-3.559-.01-.542-.017-.734.123-.725.708.037 2.192.015 4.385.015 6.578M60.17 9.264c0-2.524.01-5.05-.012-7.574-.004-.508.098-.706.66-.697 1.615.027 1.616 0 1.616 1.648 0 4.67-.01 9.338.011 14.007.003.59-.089.836-.763.81-1.511-.06-1.513-.017-1.513-1.548V9.264M86.22 28.374c0 2.503-.014 5.007.012 7.51.006.526-.117.7-.668.69-1.511-.03-1.512-.004-1.512-1.537 0-4.72.014-9.442-.017-14.162-.004-.655.192-.796.802-.776 1.38.044 1.382.012 1.382 1.408v6.867" fill="#FFF"/></g></svg>