<svg width="60" height="82" viewBox="0 0 60 82" xmlns="http://www.w3.org/2000/svg" xmlns:xlink="http://www.w3.org/1999/xlink"><title>19EEA765-A45B-414E-A0B7-036B88D1B1DD</title><defs><path id="a" d="M0 .168v80.895h59.844V.168H0z"/></defs><g fill="none" fill-rule="evenodd"><g transform="translate(0 .017)"><mask id="b" fill="#fff"><use xlink:href="#a"/></mask><path d="M50.316 61.803c-5.507 5.933-12.304 10.02-19.532 13.469-.533.253-.982.358-1.611.057C21.09 71.47 13.506 66.931 7.83 59.78c-2.585-3.257-3.957-6.936-3.858-11.188.12-5.102.03-10.21.03-15.313V16.746c0-2.591.05-2.667 2.58-2.689 5.514-.05 10.926-.667 16.058-2.86 2.475-1.058 4.698-2.443 6.204-4.768.539-.828 1.302-1.193 1.933-.242 2.818 4.25 7.239 5.64 11.816 6.744 3.498.842 7.065 1.118 10.66 1.131 2.475.01 2.566.132 2.566 2.53.002 10.5-.12 21.002.05 31.498.09 5.462-1.982 9.865-5.554 13.713m9.475-29.552c0-6.798-.03-13.594.025-20.39.012-1.37-.415-1.818-1.797-1.845-4.722-.093-9.453-.331-14.043-1.537-5.088-1.334-10.058-2.937-13.15-7.75-.497-.774-1.447-.752-1.947.094C27.006 4 23.967 5.6 20.75 6.917 14.729 9.38 8.358 9.84 1.959 10.016c-1.356.037-1.966.3-1.96 1.847.058 13.274.034 26.552.046 39.828 0 .73.008 1.456.147 2.194.892 4.722 3.476 8.49 6.692 11.867 5.159 5.418 11.315 9.516 17.922 12.894 6.275 3.209 3.943 3.24 10.207-.008 7.434-3.856 14.39-8.448 19.786-15.03 3.249-3.961 5.204-8.354 5.036-13.658-.19-5.894-.044-11.798-.044-17.7" fill="#FFF" mask="url(#b)"/></g><path d="M29.622 53.397c-.538.01-.734-.3-.967-.539-3.623-3.695-7.227-7.41-10.877-11.079-.615-.614-.515-.923.044-1.49 2.61-2.649 2.593-2.667 5.53-.386.769.598 1.535 1.2 2.301 1.802 1.755 1.38 1.764 1.388 3.282-.31 4.477-5.008 9.543-9.328 15.163-13 .5-.325 1.024-1.035 1.615-.001.447.782 1.193 1.322.14 2.324-5.405 5.14-9.864 11.034-13.53 17.525-.81 1.437-1.503 2.941-2.233 4.424-.149.3-.23.632-.468.73" fill="#FFF"/></g></svg>