<svg width="202" height="202" viewBox="0 0 202 202" xmlns="http://www.w3.org/2000/svg" xmlns:xlink="http://www.w3.org/1999/xlink"><title>E21DB5AF-42B1-411A-9801-B3C301C28AAA</title><defs><path id="a" d="M54.217.52H.106v158.385h108.223V.52z"/></defs><g fill="none" fill-rule="evenodd"><ellipse fill="#D10" cx="101" cy="101" rx="101" ry="101"/><g transform="translate(47 22)"><mask id="b" fill="#fff"><use xlink:href="#a"/></mask><path d="M69.71 116.223c-2.32 0-3.881-.81-6.241-1.581l-9.373-3.984-9.333 3.984c-1.56.77-3.92 1.58-6.251 1.58-1.56 0-2.36 0-3.92-.81L30.7 146.26l23.396-15.833 23.426 15.833-4.681-30.847c-.76.81-2.321.81-3.13.81zM91.66 63.07c-.761-1.582-.761-3.944 0-5.525l4.68-9.499c1.56-3.162 0-7.106-3.92-8.687l-10.133-3.934c-1.56-.81-3.12-2.392-3.891-3.973l-3.92-10.28c-.762-3.162-3.083-4.743-5.453-4.743-.76 0-2.32 0-3.12.77L55.77 21.955h-2.36c-.761 0-1.522 0-2.322-.781L40.955 17.2c-.8-.771-2.37-.771-3.13-.771-2.36 0-4.681 1.581-6.242 3.933l-3.891 11.09c0 1.581-1.56 3.163-3.12 3.973l-10.934 3.934c-3.13.77-4.69 4.754-3.13 8.687l4.69 10.27c.762 1.58.762 3.983 0 5.564l-4.69 9.498c-1.56 3.123 0 7.097 3.891 8.688l10.172 3.933c1.56.81 3.121 2.392 3.882 3.974l3.93 10.269c.76 3.172 3.082 4.754 5.442 4.754.76 0 1.56 0 2.33-.81l10.173-4.755c.76 0 1.56-.77 2.32-.77.762 0 1.561 0 2.322.77l10.172 4.754c.76.81 1.56.81 2.321.81 2.37 0 4.691-1.58 6.251-3.972l3.882-10.27c.8-1.59 2.37-3.172 3.93-3.943l10.133-3.973c3.121-1.582 5.442-5.525 3.882-8.688l-3.882-11.08zM53.958 87.854c-17.145 0-26.267-9.772-26.267-27.148 0-17.405 7.681-27.123 24.826-27.123 17.184 0 26.88 9.718 26.88 27.123 0 17.376-8.255 27.148-25.44 27.148z" stroke="#FFF" stroke-width="5" mask="url(#b)"/></g></g></svg>