<svg width="184" height="184" viewBox="0 0 184 184" xmlns="http://www.w3.org/2000/svg" xmlns:xlink="http://www.w3.org/1999/xlink"><title>A4C930C3-195F-40D1-8D12-26815183745B</title><defs><circle id="a" cx="92" cy="92" r="92"/><path id="c" d="M.452.103v81.425H192.99V.103H.452z"/></defs><g fill="none" fill-rule="evenodd"><mask id="b" fill="#fff"><use xlink:href="#a"/></mask><use fill="#D10" xlink:href="#a"/><path d="M57.868 70.092a10.656 10.656 0 0 0-3.89 8.231v9.605a3.868 3.868 0 0 0 3.89 3.88 3.868 3.868 0 0 0 3.888-3.88v-9.605c0-.861.394-1.684 1.061-2.234 8.407-6.86 17.482-11.447 19.25-12.31 1.531-.745 2.553-2.353 2.553-4.037V46.216a3.888 3.888 0 0 0-1.728-3.214c-.67-.47-1.1-1.215-1.1-2.039V26.93c0-4.822 3.927-8.742 8.76-8.742h3.024c4.832 0 8.76 3.92 8.76 8.742v14.034c0 .824-.393 1.569-1.099 2.039-1.1.707-1.728 1.92-1.728 3.214v13.526c0 1.725.982 3.292 2.512 4.037 1.73.863 10.844 5.45 19.251 12.31a2.905 2.905 0 0 1 1.06 2.234v9.605a3.868 3.868 0 0 0 3.889 3.88 3.87 3.87 0 0 0 3.89-3.88v-9.605c0-3.214-1.416-6.233-3.89-8.23-7.385-6.039-15.242-10.43-18.934-12.351v-9.76a10.154 10.154 0 0 0 2.827-7.059V26.93c0-9.095-7.423-16.505-16.538-16.505h-3.025c-9.113 0-16.538 7.41-16.538 16.505v14.034a10.15 10.15 0 0 0 2.83 7.056v9.723c-3.733 1.921-11.59 6.312-18.975 12.35z" fill="#FFF" mask="url(#b)"/><g mask="url(#b)"><g transform="translate(-4 97.527)"><mask id="d" fill="#fff"><use xlink:href="#c"/></mask><path d="M187.916 82.528a3.869 3.869 0 0 0 3.89-3.88v-9.606c0-3.214-1.414-6.233-3.89-8.233-7.385-6.037-15.242-10.427-18.934-12.349V38.7a10.157 10.157 0 0 0 2.83-7.058V17.607c0-9.094-7.426-16.504-16.538-16.504h-3.025c-9.115 0-16.538 7.41-16.538 16.504v14.035c0 2.667 1.02 5.176 2.827 7.058v9.76c-3.693 1.922-11.55 6.312-18.934 12.349a10.598 10.598 0 0 0-3.89 8.233v9.606a3.869 3.869 0 0 0 3.89 3.88 3.868 3.868 0 0 0 3.888-3.88v-9.606c0-.862.393-1.684 1.06-2.234 8.408-6.9 17.483-11.487 19.249-12.31 1.533-.745 2.515-2.352 2.515-4.037V36.935c0-1.294-.668-2.51-1.728-3.214-.668-.47-1.1-1.215-1.1-2.038V17.648c0-4.822 3.929-8.743 8.76-8.743h3.026c4.831 0 8.76 3.92 8.76 8.743v14.035c0 .823-.394 1.567-1.102 2.038-1.099.705-1.728 1.92-1.728 3.214v13.526c0 1.725.982 3.292 2.515 4.037 1.728.863 10.841 5.45 19.248 12.31a2.903 2.903 0 0 1 1.06 2.234v9.606c0 2.155 1.77 3.88 3.889 3.88zM71.654 60.809C64.27 54.772 56.413 50.382 52.72 48.46V38.7a10.153 10.153 0 0 0 2.828-7.058V17.607c0-9.094-7.423-16.504-16.538-16.504h-3.025c-9.113 0-16.538 7.41-16.538 16.504v14.035c0 2.667 1.022 5.176 2.829 7.058v9.76c-3.692 1.922-11.549 6.312-18.934 12.349a10.598 10.598 0 0 0-3.89 8.233v9.606a3.869 3.869 0 0 0 3.89 3.88 3.868 3.868 0 0 0 3.888-3.88v-9.606c0-.862.394-1.684 1.061-2.234 8.407-6.9 17.482-11.487 19.248-12.31 1.533-.745 2.515-2.352 2.515-4.037V36.935c0-1.294-.667-2.51-1.728-3.214-.668-.47-1.1-1.215-1.1-2.038V17.648c0-4.822 3.927-8.743 8.759-8.743h3.025c4.831 0 8.76 3.92 8.76 8.743v14.035a2.41 2.41 0 0 1-1.1 2.038c-1.098.705-1.727 1.92-1.727 3.214v13.526c0 1.725.982 3.292 2.514 4.037 1.728.863 10.842 5.41 19.249 12.31a2.904 2.904 0 0 1 1.06 2.234v9.606a3.868 3.868 0 0 0 3.888 3.88 3.869 3.869 0 0 0 3.89-3.88v-9.606c0-3.214-1.415-6.233-3.89-8.233z" fill="#FFF" mask="url(#d)"/></g></g><path d="M113.7 137.44c.628.352 1.297.51 1.924.51 1.338 0 2.672-.707 3.38-1.96 1.059-1.844.432-4.235-1.415-5.294l-21.802-12.543v-25.13a3.869 3.869 0 0 0-3.89-3.882 3.868 3.868 0 0 0-3.888 3.882v25.13l-21.803 12.583c-1.845 1.06-2.513 3.45-1.413 5.291.707 1.256 2.042 1.96 3.377 1.96.67 0 1.337-.154 1.926-.509l21.801-12.583 21.804 12.545z" fill="#FFF" mask="url(#b)"/></g></svg>