<svg width="19" height="14" viewBox="0 0 19 14" xmlns="http://www.w3.org/2000/svg"><title>3C617249-E327-43CF-95CB-3342BBE26991</title><path d="M18.648 6.267l-3.25-4.454C14.969 1.226 14.1.785 13.38.785H1.526C.686.785 0 1.473 0 2.317v10.14c0 .844.685 1.532 1.526 1.532h11.855c.724 0 1.592-.442 2.017-1.028l3.25-4.454c.46-.625.46-1.61 0-2.24zM17.8 7.889l-3.251 4.454c-.226.313-.787.595-1.172.595H1.527a.478.478 0 0 1-.476-.478V2.317c0-.262.214-.477.475-.477h11.855c.385 0 .942.286 1.172.595l3.25 4.453c.187.262.187.74-.003 1.001z" fill="#E02616" fill-rule="evenodd"/></svg>